<mxfile host="Electron" agent="Mozilla/5.0 (X11; Linux x86_64) AppleWebKit/537.36 (KHTML, like Gecko) draw.io/26.0.4 Chrome/128.0.6613.186 Electron/32.2.5 Safari/537.36" version="26.0.4">
  <diagram name="Page-1" id="sae9m4WDnG3CcVIUUMSL">
    <mxGraphModel dx="768" dy="826" grid="1" gridSize="10" guides="1" tooltips="1" connect="1" arrows="1" fold="1" page="1" pageScale="1" pageWidth="850" pageHeight="1100" math="0" shadow="0">
      <root>
        <mxCell id="0" />
        <mxCell id="1" parent="0" />
        <mxCell id="Jw0fua3k-5cOPW8Lim73-15" value="Multi-AZ" style="fillColor=none;strokeColor=#147EBA;dashed=1;verticalAlign=top;fontStyle=0;fontColor=#147EBA;whiteSpace=wrap;html=1;" vertex="1" parent="1">
          <mxGeometry x="255" y="329" width="170" height="140" as="geometry" />
        </mxCell>
        <mxCell id="Jw0fua3k-5cOPW8Lim73-19" style="edgeStyle=orthogonalEdgeStyle;rounded=0;orthogonalLoop=1;jettySize=auto;html=1;strokeColor=#00CC00;" edge="1" parent="1" source="Jw0fua3k-5cOPW8Lim73-1" target="Jw0fua3k-5cOPW8Lim73-2">
          <mxGeometry relative="1" as="geometry" />
        </mxCell>
        <mxCell id="Jw0fua3k-5cOPW8Lim73-1" value="" style="sketch=0;outlineConnect=0;fontColor=#232F3E;gradientColor=none;fillColor=#232F3D;strokeColor=none;dashed=0;verticalLabelPosition=bottom;verticalAlign=top;align=center;html=1;fontSize=12;fontStyle=0;aspect=fixed;pointerEvents=1;shape=mxgraph.aws4.user;" vertex="1" parent="1">
          <mxGeometry x="80" y="360" width="78" height="78" as="geometry" />
        </mxCell>
        <mxCell id="Jw0fua3k-5cOPW8Lim73-21" style="edgeStyle=orthogonalEdgeStyle;rounded=0;orthogonalLoop=1;jettySize=auto;html=1;exitX=1;exitY=0.25;exitDx=0;exitDy=0;exitPerimeter=0;startArrow=classic;startFill=1;" edge="1" parent="1" source="Jw0fua3k-5cOPW8Lim73-2" target="Jw0fua3k-5cOPW8Lim73-6">
          <mxGeometry relative="1" as="geometry">
            <Array as="points">
              <mxPoint x="470" y="380" />
              <mxPoint x="470" y="334" />
            </Array>
          </mxGeometry>
        </mxCell>
        <mxCell id="Jw0fua3k-5cOPW8Lim73-22" style="edgeStyle=orthogonalEdgeStyle;rounded=0;orthogonalLoop=1;jettySize=auto;html=1;exitX=1;exitY=0.5;exitDx=0;exitDy=0;exitPerimeter=0;strokeColor=#00CC00;startArrow=classic;startFill=1;" edge="1" parent="1" source="Jw0fua3k-5cOPW8Lim73-2" target="Jw0fua3k-5cOPW8Lim73-12">
          <mxGeometry relative="1" as="geometry">
            <Array as="points">
              <mxPoint x="470" y="399" />
              <mxPoint x="470" y="433" />
            </Array>
          </mxGeometry>
        </mxCell>
        <mxCell id="Jw0fua3k-5cOPW8Lim73-25" style="edgeStyle=orthogonalEdgeStyle;rounded=0;orthogonalLoop=1;jettySize=auto;html=1;exitX=1;exitY=0.75;exitDx=0;exitDy=0;exitPerimeter=0;strokeColor=#FF8000;startArrow=classic;startFill=1;" edge="1" parent="1" source="Jw0fua3k-5cOPW8Lim73-2" target="Jw0fua3k-5cOPW8Lim73-14">
          <mxGeometry relative="1" as="geometry">
            <Array as="points">
              <mxPoint x="460" y="419" />
              <mxPoint x="460" y="534" />
            </Array>
          </mxGeometry>
        </mxCell>
        <mxCell id="Jw0fua3k-5cOPW8Lim73-2" value="ELB - Elastic Load Balancer" style="sketch=0;points=[[0,0,0],[0.25,0,0],[0.5,0,0],[0.75,0,0],[1,0,0],[0,1,0],[0.25,1,0],[0.5,1,0],[0.75,1,0],[1,1,0],[0,0.25,0],[0,0.5,0],[0,0.75,0],[1,0.25,0],[1,0.5,0],[1,0.75,0]];outlineConnect=0;fontColor=#232F3E;fillColor=#ED7100;strokeColor=#ffffff;dashed=0;verticalLabelPosition=bottom;verticalAlign=top;align=center;html=1;fontSize=12;fontStyle=0;aspect=fixed;shape=mxgraph.aws4.resourceIcon;resIcon=mxgraph.aws4.elastic_load_balancing;" vertex="1" parent="1">
          <mxGeometry x="301" y="360" width="78" height="78" as="geometry" />
        </mxCell>
        <mxCell id="Jw0fua3k-5cOPW8Lim73-17" style="edgeStyle=orthogonalEdgeStyle;rounded=0;orthogonalLoop=1;jettySize=auto;html=1;startArrow=classic;startFill=1;" edge="1" parent="1" source="Jw0fua3k-5cOPW8Lim73-3" target="Jw0fua3k-5cOPW8Lim73-1">
          <mxGeometry relative="1" as="geometry" />
        </mxCell>
        <mxCell id="Jw0fua3k-5cOPW8Lim73-3" value="Amazon Route 53" style="sketch=0;points=[[0,0,0],[0.25,0,0],[0.5,0,0],[0.75,0,0],[1,0,0],[0,1,0],[0.25,1,0],[0.5,1,0],[0.75,1,0],[1,1,0],[0,0.25,0],[0,0.5,0],[0,0.75,0],[1,0.25,0],[1,0.5,0],[1,0.75,0]];outlineConnect=0;fontColor=#232F3E;fillColor=#8C4FFF;strokeColor=#ffffff;dashed=0;verticalLabelPosition=bottom;verticalAlign=top;align=center;html=1;fontSize=12;fontStyle=0;aspect=fixed;shape=mxgraph.aws4.resourceIcon;resIcon=mxgraph.aws4.route_53;" vertex="1" parent="1">
          <mxGeometry x="290" y="90" width="78" height="78" as="geometry" />
        </mxCell>
        <mxCell id="Jw0fua3k-5cOPW8Lim73-26" style="edgeStyle=orthogonalEdgeStyle;rounded=0;orthogonalLoop=1;jettySize=auto;html=1;startArrow=classic;startFill=1;" edge="1" parent="1" source="Jw0fua3k-5cOPW8Lim73-4" target="Jw0fua3k-5cOPW8Lim73-6">
          <mxGeometry relative="1" as="geometry">
            <Array as="points">
              <mxPoint x="672" y="300" />
              <mxPoint x="672" y="340" />
            </Array>
          </mxGeometry>
        </mxCell>
        <mxCell id="Jw0fua3k-5cOPW8Lim73-27" style="edgeStyle=orthogonalEdgeStyle;rounded=0;orthogonalLoop=1;jettySize=auto;html=1;startArrow=classic;startFill=1;" edge="1" parent="1" source="Jw0fua3k-5cOPW8Lim73-4" target="Jw0fua3k-5cOPW8Lim73-12">
          <mxGeometry relative="1" as="geometry">
            <Array as="points">
              <mxPoint x="680" y="310" />
              <mxPoint x="680" y="430" />
            </Array>
          </mxGeometry>
        </mxCell>
        <mxCell id="Jw0fua3k-5cOPW8Lim73-28" style="edgeStyle=orthogonalEdgeStyle;rounded=0;orthogonalLoop=1;jettySize=auto;html=1;startArrow=classic;startFill=1;" edge="1" parent="1" source="Jw0fua3k-5cOPW8Lim73-4" target="Jw0fua3k-5cOPW8Lim73-14">
          <mxGeometry relative="1" as="geometry">
            <Array as="points">
              <mxPoint x="690" y="320" />
              <mxPoint x="690" y="540" />
            </Array>
          </mxGeometry>
        </mxCell>
        <mxCell id="Jw0fua3k-5cOPW8Lim73-4" value="&lt;b&gt;ElastiCache&lt;/b&gt;&lt;div&gt;Store / Retrive&lt;div&gt;session data&lt;/div&gt;&lt;div&gt;+&lt;/div&gt;&lt;div&gt;Cached data&lt;/div&gt;&lt;/div&gt;" style="sketch=0;points=[[0,0,0],[0.25,0,0],[0.5,0,0],[0.75,0,0],[1,0,0],[0,1,0],[0.25,1,0],[0.5,1,0],[0.75,1,0],[1,1,0],[0,0.25,0],[0,0.5,0],[0,0.75,0],[1,0.25,0],[1,0.5,0],[1,0.75,0]];outlineConnect=0;fontColor=#232F3E;fillColor=#C925D1;strokeColor=#ffffff;dashed=0;verticalLabelPosition=bottom;verticalAlign=top;align=center;html=1;fontSize=12;fontStyle=0;aspect=fixed;shape=mxgraph.aws4.resourceIcon;resIcon=mxgraph.aws4.elasticache;" vertex="1" parent="1">
          <mxGeometry x="730" y="280" width="78" height="78" as="geometry" />
        </mxCell>
        <mxCell id="Jw0fua3k-5cOPW8Lim73-29" style="edgeStyle=orthogonalEdgeStyle;rounded=0;orthogonalLoop=1;jettySize=auto;html=1;dashed=1;startArrow=classic;startFill=1;" edge="1" parent="1" source="Jw0fua3k-5cOPW8Lim73-5" target="Jw0fua3k-5cOPW8Lim73-14">
          <mxGeometry relative="1" as="geometry">
            <Array as="points">
              <mxPoint x="672" y="510" />
              <mxPoint x="672" y="530" />
            </Array>
          </mxGeometry>
        </mxCell>
        <mxCell id="Jw0fua3k-5cOPW8Lim73-30" style="edgeStyle=orthogonalEdgeStyle;rounded=0;orthogonalLoop=1;jettySize=auto;html=1;dashed=1;startArrow=classic;startFill=1;" edge="1" parent="1" source="Jw0fua3k-5cOPW8Lim73-5" target="Jw0fua3k-5cOPW8Lim73-12">
          <mxGeometry relative="1" as="geometry">
            <Array as="points">
              <mxPoint x="710" y="500" />
              <mxPoint x="710" y="440" />
            </Array>
          </mxGeometry>
        </mxCell>
        <mxCell id="Jw0fua3k-5cOPW8Lim73-31" style="edgeStyle=orthogonalEdgeStyle;rounded=0;orthogonalLoop=1;jettySize=auto;html=1;dashed=1;startArrow=classic;startFill=1;" edge="1" parent="1" source="Jw0fua3k-5cOPW8Lim73-5" target="Jw0fua3k-5cOPW8Lim73-6">
          <mxGeometry relative="1" as="geometry">
            <Array as="points">
              <mxPoint x="720" y="490" />
              <mxPoint x="720" y="420" />
              <mxPoint x="710" y="420" />
              <mxPoint x="710" y="330" />
            </Array>
          </mxGeometry>
        </mxCell>
        <mxCell id="Jw0fua3k-5cOPW8Lim73-5" value="&lt;b&gt;Amazon RDS&lt;/b&gt;&lt;div&gt;Read / Write&lt;/div&gt;&lt;div&gt;Data&lt;/div&gt;" style="sketch=0;points=[[0,0,0],[0.25,0,0],[0.5,0,0],[0.75,0,0],[1,0,0],[0,1,0],[0.25,1,0],[0.5,1,0],[0.75,1,0],[1,1,0],[0,0.25,0],[0,0.5,0],[0,0.75,0],[1,0.25,0],[1,0.5,0],[1,0.75,0]];outlineConnect=0;fontColor=#232F3E;fillColor=#C925D1;strokeColor=#ffffff;dashed=0;verticalLabelPosition=bottom;verticalAlign=top;align=center;html=1;fontSize=12;fontStyle=0;aspect=fixed;shape=mxgraph.aws4.resourceIcon;resIcon=mxgraph.aws4.rds;" vertex="1" parent="1">
          <mxGeometry x="730" y="458" width="78" height="78" as="geometry" />
        </mxCell>
        <mxCell id="Jw0fua3k-5cOPW8Lim73-8" value="Auto Scaling group" style="points=[[0,0],[0.25,0],[0.5,0],[0.75,0],[1,0],[1,0.25],[1,0.5],[1,0.75],[1,1],[0.75,1],[0.5,1],[0.25,1],[0,1],[0,0.75],[0,0.5],[0,0.25]];outlineConnect=0;gradientColor=none;html=1;whiteSpace=wrap;fontSize=12;fontStyle=0;container=1;pointerEvents=0;collapsible=0;recursiveResize=0;shape=mxgraph.aws4.groupCenter;grIcon=mxgraph.aws4.group_auto_scaling_group;grStroke=1;strokeColor=#D86613;fillColor=none;verticalAlign=top;align=center;fontColor=#D86613;dashed=1;spacingTop=25;" vertex="1" parent="1">
          <mxGeometry x="480" y="219" width="140" height="360" as="geometry" />
        </mxCell>
        <mxCell id="Jw0fua3k-5cOPW8Lim73-10" value="Availability Zone 1" style="fillColor=none;strokeColor=#147EBA;dashed=1;verticalAlign=top;fontStyle=0;fontColor=#147EBA;whiteSpace=wrap;html=1;" vertex="1" parent="Jw0fua3k-5cOPW8Lim73-8">
          <mxGeometry x="12.5" y="60" width="115" height="90" as="geometry" />
        </mxCell>
        <mxCell id="Jw0fua3k-5cOPW8Lim73-6" value="" style="sketch=0;outlineConnect=0;fontColor=#232F3E;gradientColor=none;fillColor=#ED7100;strokeColor=none;dashed=0;verticalLabelPosition=bottom;verticalAlign=top;align=center;html=1;fontSize=12;fontStyle=0;aspect=fixed;pointerEvents=1;shape=mxgraph.aws4.m5_instance;" vertex="1" parent="Jw0fua3k-5cOPW8Lim73-8">
          <mxGeometry x="46" y="90" width="48" height="48" as="geometry" />
        </mxCell>
        <mxCell id="Jw0fua3k-5cOPW8Lim73-11" value="Availability Zone 2" style="fillColor=none;strokeColor=#147EBA;dashed=1;verticalAlign=top;fontStyle=0;fontColor=#147EBA;whiteSpace=wrap;html=1;" vertex="1" parent="Jw0fua3k-5cOPW8Lim73-8">
          <mxGeometry x="12.5" y="160" width="115" height="90" as="geometry" />
        </mxCell>
        <mxCell id="Jw0fua3k-5cOPW8Lim73-12" value="" style="sketch=0;outlineConnect=0;fontColor=#232F3E;gradientColor=none;fillColor=#ED7100;strokeColor=none;dashed=0;verticalLabelPosition=bottom;verticalAlign=top;align=center;html=1;fontSize=12;fontStyle=0;aspect=fixed;pointerEvents=1;shape=mxgraph.aws4.m5_instance;" vertex="1" parent="Jw0fua3k-5cOPW8Lim73-8">
          <mxGeometry x="46" y="190" width="48" height="48" as="geometry" />
        </mxCell>
        <mxCell id="Jw0fua3k-5cOPW8Lim73-13" value="Availability Zone 3" style="fillColor=none;strokeColor=#147EBA;dashed=1;verticalAlign=top;fontStyle=0;fontColor=#147EBA;whiteSpace=wrap;html=1;" vertex="1" parent="Jw0fua3k-5cOPW8Lim73-8">
          <mxGeometry x="12.5" y="260" width="115" height="90" as="geometry" />
        </mxCell>
        <mxCell id="Jw0fua3k-5cOPW8Lim73-14" value="" style="sketch=0;outlineConnect=0;fontColor=#232F3E;gradientColor=none;fillColor=#ED7100;strokeColor=none;dashed=0;verticalLabelPosition=bottom;verticalAlign=top;align=center;html=1;fontSize=12;fontStyle=0;aspect=fixed;pointerEvents=1;shape=mxgraph.aws4.m5_instance;" vertex="1" parent="Jw0fua3k-5cOPW8Lim73-8">
          <mxGeometry x="46" y="290" width="48" height="48" as="geometry" />
        </mxCell>
        <mxCell id="Jw0fua3k-5cOPW8Lim73-18" style="edgeStyle=orthogonalEdgeStyle;rounded=0;orthogonalLoop=1;jettySize=auto;html=1;entryX=0;entryY=0.25;entryDx=0;entryDy=0;entryPerimeter=0;" edge="1" parent="1" source="Jw0fua3k-5cOPW8Lim73-1" target="Jw0fua3k-5cOPW8Lim73-2">
          <mxGeometry relative="1" as="geometry">
            <Array as="points">
              <mxPoint x="245" y="380" />
            </Array>
          </mxGeometry>
        </mxCell>
        <mxCell id="Jw0fua3k-5cOPW8Lim73-20" style="edgeStyle=orthogonalEdgeStyle;rounded=0;orthogonalLoop=1;jettySize=auto;html=1;entryX=0;entryY=0.75;entryDx=0;entryDy=0;entryPerimeter=0;strokeColor=#FF8000;" edge="1" parent="1" source="Jw0fua3k-5cOPW8Lim73-1" target="Jw0fua3k-5cOPW8Lim73-2">
          <mxGeometry relative="1" as="geometry">
            <Array as="points">
              <mxPoint x="245" y="419" />
            </Array>
          </mxGeometry>
        </mxCell>
        <mxCell id="Jw0fua3k-5cOPW8Lim73-32" value="PRIVATE SUBNET" style="text;html=1;align=center;verticalAlign=middle;resizable=0;points=[];autosize=1;strokeColor=none;fillColor=none;" vertex="1" parent="1">
          <mxGeometry x="485" y="590" width="130" height="30" as="geometry" />
        </mxCell>
        <mxCell id="Jw0fua3k-5cOPW8Lim73-33" value="PUBLIC SUBNET" style="text;html=1;align=center;verticalAlign=middle;resizable=0;points=[];autosize=1;strokeColor=none;fillColor=none;" vertex="1" parent="1">
          <mxGeometry x="269" y="590" width="120" height="30" as="geometry" />
        </mxCell>
        <mxCell id="Jw0fua3k-5cOPW8Lim73-34" value="DATA SUBNET" style="text;html=1;align=center;verticalAlign=middle;resizable=0;points=[];autosize=1;strokeColor=none;fillColor=none;" vertex="1" parent="1">
          <mxGeometry x="714" y="590" width="110" height="30" as="geometry" />
        </mxCell>
      </root>
    </mxGraphModel>
  </diagram>
</mxfile>
